<svg width="28" height="29" viewBox="0 0 28 29" fill="none" xmlns="http://www.w3.org/2000/svg">
<path fill-rule="evenodd" clip-rule="evenodd" d="M9 7.15152C9 4.71298 11.0504 2.66667 13.6667 2.66667C16.283 2.66667 18.3333 4.71298 18.3333 7.15152V7.43123C17.6642 7.36292 16.9461 7.33333 16.1755 7.33333H11.1579C10.3911 7.33333 9.67261 7.36084 9 7.42793V7.15152ZM6.33333 8.01495V7.15152C6.33333 3.16347 9.65555 0 13.6667 0C17.6778 0 21 3.16347 21 7.15152V8.02112C21.5827 8.2441 22.1128 8.52995 22.5952 8.8907C24.1744 10.0719 25.0567 11.9182 25.7611 14.374L25.7774 14.4308C26.4094 16.6341 26.9055 18.3636 27.153 19.7588C27.4045 21.1759 27.4286 22.3884 26.9947 23.5105C26.5075 24.7702 25.6451 25.8563 24.523 26.6353C23.4236 27.3986 21.7159 27.8929 19.8587 28.205C17.9639 28.5233 15.7741 28.6735 13.6039 28.6664C11.4336 28.6594 9.25488 28.4951 7.38177 28.1734C5.54879 27.8585 3.87022 27.3711 2.81039 26.6353C1.68823 25.8563 0.825811 24.7702 0.338672 23.5105C-0.0952069 22.3884 -0.0711367 21.1759 0.180316 19.7588C0.427897 18.3636 0.923975 16.6341 1.55591 14.4309L1.55592 14.4309L1.55592 14.4309L1.57224 14.374C2.30875 11.8062 3.24955 9.95805 4.85575 8.80461C5.30928 8.47892 5.80104 8.21948 6.33333 8.01495ZM11 13C11 12.2636 11.597 11.6667 12.3333 11.6667H15C15.7364 11.6667 16.3333 12.2636 16.3333 13C16.3333 13.7364 15.7364 14.3333 15 14.3333H12.3333C11.597 14.3333 11 13.7364 11 13Z" fill="url(#paint0_linear_194_797)"/>
<defs>
<linearGradient id="paint0_linear_194_797" x1="4.59697" y1="51.1905" x2="47.498" y2="27.5131" gradientUnits="userSpaceOnUse">
<stop stop-color="#0013E0"/>
<stop offset="1" stop-color="#B55AFF"/>
</linearGradient>
</defs>
</svg>
